<svg width="225" height="227" viewBox="0 0 225 227" fill="none" xmlns="http://www.w3.org/2000/svg">
<path d="M79.5001 27.3909C43.8001 39.4909 18.2001 70.1909 12.0001 108.191C10.5001 117.691 11.0001 120.791 14.4001 120.791C17.2001 120.791 18.2001 118.891 18.9001 112.091C22.7001 77.2909 48.4001 45.8909 82.5001 34.3909C86.4001 33.0909 89.6001 31.7909 89.5001 31.3909C89.5001 31.0909 89.5001 29.3909 89.5001 27.7909C89.5001 24.1909 89.1001 24.0909 79.5001 27.3909Z" fill="white"/>
<path d="M161.5 38.7909C160.3 41.0909 161.2 42.1909 170.4 48.6909C185.9 59.7909 198.6 78.4909 204.6 98.8909C207.4 108.691 208.3 132.191 206.2 141.891L204.8 148.491L207.9 149.591C209.5 150.291 211.2 150.391 211.6 149.991C212.8 148.691 214.6 138.491 215.2 129.191C217.4 95.9909 200.5 60.9909 172.9 41.1909C166.2 36.3909 163.1 35.6909 161.5 38.7909Z" fill="white"/>
<path d="M20.3 149.491C21 149.791 21.9 149.691 22.2 149.391C22.6 149.091 22 148.791 20.9 148.891C19.8 148.891 19.5 149.191 20.3 149.491Z" fill="white"/>
<path d="M30.3 149.491C31 149.791 31.9 149.691 32.2 149.391C32.6 149.091 32 148.791 30.9 148.891C29.8 148.891 29.5 149.191 30.3 149.491Z" fill="white"/>
<path d="M14.9 151.391C13.1 152.791 13.1 152.791 15.5 151.691C18.6 150.291 19.1 149.791 17.9 149.791C17.3 149.791 16 150.491 14.9 151.391Z" fill="white"/>
<path d="M41.5001 155.291C43.4001 157.191 45.1001 158.791 45.4001 158.791C45.7001 158.791 44.4001 157.191 42.5001 155.291C40.6001 153.391 38.9001 151.791 38.6001 151.791C38.3001 151.791 39.6001 153.391 41.5001 155.291Z" fill="white"/>
<path d="M9.4 155.491L7 158.291L9.8 155.891C12.3 153.591 13 152.791 12.2 152.791C12 152.791 10.8 153.991 9.4 155.491Z" fill="white"/>
<path d="M48.7999 171.291C48.7999 173.491 48.9999 174.291 49.1999 172.991C49.3999 171.791 49.3999 169.991 49.1999 168.991C48.8999 168.091 48.6999 169.091 48.7999 171.291Z" fill="white"/>
<path d="M42.1 188.291C41.2 189.691 39.4 190.991 38.1 191.391C35.9 191.891 36.2 192.291 42.4 198.191C55.4 210.391 70.9 218.891 88.3 223.491C96.5 225.591 100.2 225.991 112.5 226.091C127.6 226.091 134.7 224.991 147.2 220.591C154 218.291 155.9 215.791 153.1 212.991C151.6 211.491 150.8 211.591 143.3 213.991C130.7 218.091 122.7 219.091 108.6 218.491C94 217.891 83.2 215.191 70.7 208.891C58.1 202.491 42.7 190.191 43.9 187.291C44.7 184.991 43.9 185.491 42.1 188.291Z" fill="white"/>
<path d="M15.2 191.891C15.9 192.591 16.7 192.891 17 192.591C17.3 192.291 16.8 191.691 15.8 191.391C14.4 190.791 14.3 190.891 15.2 191.891Z" fill="white"/>
<path d="M24.3 194.491C25.5 194.691 27.5 194.691 28.8 194.491C30 194.291 29 194.091 26.5 194.091C24 194.091 23 194.291 24.3 194.491Z" fill="white"/>
<circle cx="25" cy="171" r="25" fill="white"/>
<circle cx="200" cy="170" r="25" fill="white"/>
<circle cx="110" cy="25" r="25" fill="white"/>
</svg>
